<?xml version="1.0" standalone="no"?>
<!DOCTYPE svg PUBLIC "-//W3C//DTD SVG 20010904//EN"
 "http://www.w3.org/TR/2001/REC-SVG-20010904/DTD/svg10.dtd">
<svg version="1.0" xmlns="http://www.w3.org/2000/svg"
 width="120" height="120" viewBox="0 0 96.000000 96.000000"
 preserveAspectRatio="xMidYMid meet" fill="#a0a0a0">
<metadata>
Created by potrace 1.15, written by Peter Selinger 2001-2017
</metadata>
<g transform="translate(0.000000,96.000000) scale(0.100000,-0.100000)"
fill="#a0a0a0" stroke="none">
<path d="M40 834 l0 -47 39 6 39 5 50 -122 c28 -66 57 -137 66 -157 14 -34 14
-37 -15 -80 -36 -55 -38 -101 -4 -134 l24 -25 261 0 260 0 0 40 0 40 -240 0
-240 0 23 38 24 37 172 5 c201 6 169 -14 272 172 49 90 69 136 67 156 l-3 27
-311 3 -311 2 -13 40 -13 40 -74 0 -73 0 0 -46z"/>
<path d="M220 220 c-13 -13 -20 -33 -20 -60 0 -53 27 -80 80 -80 27 0 47 7 60
20 13 13 20 33 20 60 0 53 -27 80 -80 80 -27 0 -47 -7 -60 -20z"/>
<path d="M620 220 c-13 -13 -20 -33 -20 -60 0 -53 27 -80 80 -80 53 0 80 27
80 80 0 53 -27 80 -80 80 -27 0 -47 -7 -60 -20z"/>
</g>
</svg>
