<?xml version="1.0" standalone="no"?>
<!DOCTYPE svg PUBLIC "-//W3C//DTD SVG 20010904//EN"
 "http://www.w3.org/TR/2001/REC-SVG-20010904/DTD/svg10.dtd">
<svg version="1.0" xmlns="http://www.w3.org/2000/svg"
 width="280.000000pt" height="287.000000pt" viewBox="0 0 280.000000 287.000000"
 preserveAspectRatio="xMidYMid meet">
<metadata>
Created by potrace 1.15, written by Peter Selinger 2001-2017
</metadata>
<g transform="translate(0.000000,287.000000) scale(0.100000,-0.100000)"
fill="#000000" stroke="none">
<path d="M656 2389 c-4 -19 -15 -94 -26 -168 l-21 -135 73 -73 c57 -58 70 -75
60 -85 -10 -10 -42 18 -157 132 l-144 144 -26 -24 -26 -24 82 -82 81 -81 -139
-22 c-76 -11 -159 -24 -185 -27 -27 -4 -48 -10 -48 -13 0 -3 96 -102 214 -220
l214 -214 83 12 c46 7 98 14 115 17 l31 6 -10 -54 c-11 -63 3 -146 36 -208 24
-44 571 -610 590 -610 7 0 120 108 252 240 l240 240 -290 289 c-339 337 -338
336 -487 336 -81 0 -98 3 -98 15 0 8 7 58 15 110 l15 95 -219 219 -219 219 -6
-34z"/>
<path d="M1730 865 l-244 -244 43 -38 c61 -54 157 -111 216 -129 83 -26 202
-29 289 -9 42 10 80 23 85 29 5 6 17 38 26 71 25 85 23 221 -4 307 -21 67 -98
193 -143 235 l-24 22 -244 -244z"/>
</g>
</svg>
