<?xml version="1.0" standalone="no"?>
<!DOCTYPE svg PUBLIC "-//W3C//DTD SVG 20010904//EN"
 "http://www.w3.org/TR/2001/REC-SVG-20010904/DTD/svg10.dtd">
<svg version="1.0" xmlns="http://www.w3.org/2000/svg"
 fill="#a0a0a0" width="120" height="120" viewBox="0 0 100.000000 100.000000"
 preserveAspectRatio="xMidYMid meet">
<metadata>
Created by potrace 1.15, written by Peter Selinger 2001-2017
</metadata>
<g transform="translate(0.000000,100.000000) scale(0.100000,-0.100000)"
fill="#a0a0a0" stroke="none">
<path d="M523 963 c-7 -2 -13 -10 -13 -16 0 -20 239 -790 248 -799 12 -12 233
34 240 50 11 31 -15 35 -108 17 -50 -10 -93 -15 -96 -12 -3 3 -58 175 -122
383 -64 208 -121 379 -127 380 -5 1 -16 0 -22 -3z"/>
<path d="M82 818 c-8 -8 -12 -55 -12 -150 0 -127 -1 -138 -18 -138 -11 0 -26
-8 -35 -18 -15 -16 -17 -45 -17 -198 0 -170 1 -183 24 -230 27 -56 60 -79 115
-79 45 0 87 26 109 66 15 26 22 29 68 29 47 0 55 -4 91 -39 147 -148 383 18
292 206 -12 24 -34 54 -50 65 -21 16 -29 30 -29 53 0 36 -26 65 -57 65 -18 0
-29 25 -85 188 l-63 187 -160 3 c-116 2 -164 -1 -173 -10z m351 -203 l55 -165
-41 0 c-36 0 -47 6 -78 40 l-37 40 -106 0 -106 0 0 125 0 125 129 0 129 0 55
-165z m-88 -175 l39 -40 93 0 c76 0 93 -3 93 -15 0 -11 -11 -15 -37 -15 -53 0
-120 -36 -149 -80 -14 -21 -27 -59 -31 -88 l-6 -52 -42 0 c-38 0 -44 3 -55 31
-26 61 -107 86 -170 54 l-30 -16 0 131 0 130 128 0 128 0 39 -40z m256 -143
c73 -49 87 -132 33 -196 -52 -62 -146 -63 -198 -1 -53 63 -39 150 33 197 43
29 89 29 132 0z m-414 -119 c61 -57 -14 -158 -84 -113 -31 20 -43 53 -31 84
19 52 75 67 115 29z"/>
</g>
</svg>
