<?xml version="1.0" standalone="no"?>
<!DOCTYPE svg PUBLIC "-//W3C//DTD SVG 20010904//EN"
 "http://www.w3.org/TR/2001/REC-SVG-20010904/DTD/svg10.dtd">
<svg version="1.0" xmlns="http://www.w3.org/2000/svg"
 width="120" height="120" viewBox="0 0 225.000000 225.000000"
 preserveAspectRatio="xMidYMid meet">
<metadata>
Created by potrace 1.15, written by Peter Selinger 2001-2017
</metadata>
<g transform="translate(0.000000,225.000000) scale(0.100000,-0.100000)"
fill="#a0a0a0" stroke="none">
<path d="M1484 1829 c-28 -10 -93 -47 -145 -82 -105 -70 -136 -110 -146 -196
-4 -38 0 -67 17 -117 17 -51 20 -72 12 -89 -6 -12 -91 -89 -189 -171 -331
-277 -564 -491 -600 -552 -21 -36 -25 -52 -21 -103 5 -65 24 -100 77 -136 49
-33 110 -39 162 -15 71 31 296 273 619 662 57 69 108 128 114 132 18 12 61 9
99 -7 58 -24 144 -19 205 11 43 21 61 40 107 108 66 99 108 188 103 218 -6 44
-36 32 -116 -45 -99 -96 -157 -113 -238 -69 -30 16 -113 108 -124 137 -28 74
1 145 99 240 52 50 63 78 35 89 -9 3 -16 6 -17 5 -1 0 -25 -9 -53 -20z"/>
<path d="M417 1712 c-26 -26 -47 -50 -47 -54 0 -3 31 -59 69 -124 l69 -119 63
-7 63 -7 127 -127 127 -127 51 44 52 43 -136 136 -135 135 0 51 c0 36 -5 55
-17 66 -17 14 -228 138 -235 138 -2 0 -25 -22 -51 -48z"/>
<path d="M1250 892 c-45 -53 -84 -102 -87 -109 -6 -16 131 -195 231 -301 91
-96 135 -122 203 -122 123 1 208 129 159 243 -18 43 -197 215 -323 310 l-102
77 -81 -98z"/>
</g>
</svg>
