<?xml version="1.0" standalone="no"?>
<!DOCTYPE svg PUBLIC "-//W3C//DTD SVG 20010904//EN"
 "http://www.w3.org/TR/2001/REC-SVG-20010904/DTD/svg10.dtd">
<svg version="1.0" xmlns="http://www.w3.org/2000/svg"
 width="120" height="120" viewBox="0 0 225.000000 225.000000"
 preserveAspectRatio="xMidYMid meet">
<metadata>
Created by potrace 1.15, written by Peter Selinger 2001-2017
</metadata>
<g transform="translate(0.000000,225.000000) scale(0.100000,-0.100000)"
fill="#a0a0a0" stroke="none">
<path d="M956 2051 c-56 -75 -55 -75 -131 -52 -37 12 -70 19 -74 17 -3 -2 -17
-36 -31 -75 l-24 -71 -78 0 -78 0 0 -75 c0 -83 -2 -86 -95 -115 -22 -7 -44
-16 -48 -20 -5 -4 1 -40 13 -79 12 -40 21 -73 19 -75 -2 -2 -30 -22 -61 -46
-32 -23 -58 -44 -58 -47 0 -2 18 -31 40 -63 22 -32 40 -63 40 -68 0 -5 -19
-35 -42 -67 l-42 -59 39 -30 c21 -17 49 -40 62 -51 l23 -20 -21 -73 c-11 -41
-19 -75 -17 -76 2 -2 35 -14 73 -27 l70 -24 3 -77 3 -78 48 0 c94 0 108 -7
126 -61 15 -46 15 -56 -11 -229 -15 -99 -25 -183 -22 -185 2 -3 51 11 108 30
57 19 105 35 106 35 1 0 41 -32 90 -71 l89 -71 20 136 c10 75 22 136 25 136 3
0 17 -33 29 -73 44 -135 31 -131 120 -36 l78 84 109 -22 c60 -11 111 -19 113
-18 1 2 -12 48 -29 101 l-33 97 22 68 c24 74 32 79 132 79 l48 0 3 78 3 77 70
24 c39 13 72 26 74 28 2 1 -6 35 -18 75 l-22 73 37 30 c21 17 49 39 62 51 l25
21 -41 59 c-23 33 -42 63 -42 67 0 5 18 35 40 67 22 32 40 61 40 63 0 3 -26
24 -57 47 -32 24 -60 44 -62 46 -2 2 7 35 19 75 12 39 18 75 13 79 -4 4 -26
13 -48 20 -93 29 -95 32 -95 115 l0 75 -78 0 -78 0 -24 71 c-14 39 -28 73 -32
75 -3 2 -35 -5 -70 -16 -34 -11 -67 -20 -73 -20 -5 0 -28 25 -50 56 -22 31
-43 58 -47 60 -5 3 -33 -13 -65 -35 -31 -23 -62 -41 -68 -41 -6 0 -37 18 -68
40 -30 22 -58 40 -60 40 -3 0 -21 -22 -41 -49z m353 -206 c189 -61 346 -230
392 -425 20 -87 17 -223 -9 -305 -76 -245 -315 -425 -567 -425 -252 0 -491
180 -567 425 -26 81 -30 240 -9 315 53 190 209 357 387 415 125 40 245 40 373
0z"/>
<path d="M890 1521 c-72 -22 -128 -71 -154 -133 -22 -51 -20 -143 3 -194 22
-47 91 -110 132 -119 16 -4 48 -22 70 -41 54 -45 74 -55 135 -70 l52 -12 15
39 15 39 -34 0 c-30 0 -94 23 -94 34 0 2 22 17 49 33 126 79 146 256 40 362
-60 59 -154 85 -229 62z m145 -90 c126 -71 86 -274 -58 -298 -88 -14 -176 55
-185 146 -12 132 125 218 243 152z"/>
<path d="M1236 1459 c-22 -60 -26 -82 -20 -129 10 -88 -15 -160 -76 -221 l-49
-49 39 0 c37 0 39 2 58 53 l20 52 102 0 103 0 20 -52 c19 -51 21 -53 58 -53
22 0 39 3 39 6 0 4 -39 109 -87 235 l-86 229 -48 0 -47 0 -26 -71z"/>
</g>
</svg>
